# xmcd
#
# Track frame offsets: 
#        150
#        15485
#        36284
#        54495
#        75629
#        94816
#        112361
#        130641
#        150576
#        170331
#        189447
#        209556
#        232269
#        249007
#        263245
#        279872
#        299700
#        316523
#
# Disc length: 4508 seconds
#
# Revision: 0
# Processed by: cddbd v1.5.2PL0 Copyright (c) Steve Scherf et al.
# Submitted via: ExactAudioCopyFreeDBPlugin 1.0
#
DISCID=f6119a12
DTITLE=冷漠 - 网络三大才子
DYEAR=1900
DGENRE=
TTITLE0=旧情人旧情歌
TTITLE1=情人都是别人的好
TTITLE2=在你之情我早已有了她
TTITLE3=风一样的女子
TTITLE4=爱情麻将
TTITLE5=爱不再来
TTITLE6=你真的很好
TTITLE7=就这样成为你的回忆
TTITLE8=如果离开我你才会幸福
TTITLE9=相依相偎
TTITLE10=爱恨情歌
TTITLE11=蝶恋妃
TTITLE12=老板难当
TTITLE13=愤怒的小鸟
TTITLE14=两颗心四行泪
TTITLE15=爱着你却伤了她
TTITLE16=相爱的人不要随便说分手
TTITLE17=离开你不是因为我冷漠
EXTD=
EXTT0=
EXTT1=
EXTT2=
EXTT3=
EXTT4=
EXTT5=
EXTT6=
EXTT7=
EXTT8=
EXTT9=
EXTT10=
EXTT11=
EXTT12=
EXTT13=
EXTT14=
EXTT15=
EXTT16=
EXTT17=
PLAYORDER=
